<?xml version="1.0" encoding="utf-8" standalone="no"?>
<!DOCTYPE svg PUBLIC "-//W3C//DTD SVG 1.1//EN"
  "http://www.w3.org/Graphics/SVG/1.1/DTD/svg11.dtd">
<svg height="360pt" version="1.1" viewBox="0 0 360 360" width="360pt" xmlns="http://www.w3.org/2000/svg" xmlns:xlink="http://www.w3.org/1999/xlink">
 <metadata>
  <rdf:RDF xmlns:cc="http://creativecommons.org/ns#" xmlns:dc="http://purl.org/dc/elements/1.1/" xmlns:rdf="http://www.w3.org/1999/02/22-rdf-syntax-ns#">
   <cc:Work>
    <dc:type rdf:resource="http://purl.org/dc/dcmitype/StillImage"/>
    <dc:date>2022-07-25T02:45:01.370524</dc:date>
    <dc:format>image/svg+xml</dc:format>
    <dc:creator>
     <cc:Agent>
      <dc:title>Matplotlib v3.4.2, https://matplotlib.org/</dc:title>
     </cc:Agent>
    </dc:creator>
   </cc:Work>
  </rdf:RDF>
 </metadata>
 <defs>
  <style type="text/css">*{stroke-linecap:butt;stroke-linejoin:round;}</style>
 </defs>
 <g id="figure_1">
  <g id="patch_1">
   <path d="M 0 360 
L 360 360 
L 360 0 
L 0 0 
z
" style="fill:none;"/>
  </g>
  <g id="axes_1">
   <g id="patch_2">
    <path clip-path="url(#p8435524048)" d="M 184.5 269.7 
C 209.163888 269.7 232.820928 260.153812 250.260931 243.163874 
C 267.700933 226.173936 277.5 203.127401 277.5 179.1 
C 277.5 155.072599 267.700933 132.026064 250.260931 115.036126 
C 232.820928 98.046188 209.163888 88.5 184.5 88.5 
C 159.836112 88.5 136.179072 98.046188 118.739069 115.036126 
C 101.299067 132.026064 91.5 155.072599 91.5 179.1 
C 91.5 203.127401 101.299067 226.173936 118.739069 243.163874 
C 136.179072 260.153812 159.836112 269.7 184.5 269.7 
z
" style="fill:none;stroke:#000000;stroke-linejoin:miter;stroke-width:3;"/>
   </g>
   <g id="line2d_1">
    <path clip-path="url(#p8435524048)" d="M 257.210328 235.588176 
L 111.789672 122.611824 
" style="fill:none;stroke:#000000;stroke-linecap:square;stroke-width:3;"/>
   </g>
   <g id="text_1">
    <!-- 1 -->
    <g transform="translate(156.485414 75.865212)scale(0.1 -0.1)">
     <defs>
      <path d="M 794 531 
L 1825 531 
L 1825 4091 
L 703 3866 
L 703 4441 
L 1819 4666 
L 2450 4666 
L 2450 531 
L 3481 531 
L 3481 0 
L 794 0 
L 794 531 
z
" id="DejaVuSans-31" transform="scale(0.015625)"/>
     </defs>
     <use xlink:href="#DejaVuSans-31"/>
    </g>
   </g>
   <g id="text_2">
    <!-- 2 -->
    <g transform="translate(290.120705 206.051851)scale(0.1 -0.1)">
     <defs>
      <path d="M 1228 531 
L 3431 531 
L 3431 0 
L 469 0 
L 469 531 
Q 828 903 1448 1529 
Q 2069 2156 2228 2338 
Q 2531 2678 2651 2914 
Q 2772 3150 2772 3378 
Q 2772 3750 2511 3984 
Q 2250 4219 1831 4219 
Q 1534 4219 1204 4116 
Q 875 4013 500 3803 
L 500 4441 
Q 881 4594 1212 4672 
Q 1544 4750 1819 4750 
Q 2544 4750 2975 4387 
Q 3406 4025 3406 3419 
Q 3406 3131 3298 2873 
Q 3191 2616 2906 2266 
Q 2828 2175 2409 1742 
Q 1991 1309 1228 531 
z
" id="DejaVuSans-32" transform="scale(0.015625)"/>
     </defs>
     <use xlink:href="#DejaVuSans-32"/>
    </g>
   </g>
   <g id="text_3">
    <!-- 3 -->
    <g transform="translate(132.897325 279.81271)scale(0.1 -0.1)">
     <defs>
      <path d="M 2597 2516 
Q 3050 2419 3304 2112 
Q 3559 1806 3559 1356 
Q 3559 666 3084 287 
Q 2609 -91 1734 -91 
Q 1441 -91 1130 -33 
Q 819 25 488 141 
L 488 750 
Q 750 597 1062 519 
Q 1375 441 1716 441 
Q 2309 441 2620 675 
Q 2931 909 2931 1356 
Q 2931 1769 2642 2001 
Q 2353 2234 1838 2234 
L 1294 2234 
L 1294 2753 
L 1863 2753 
Q 2328 2753 2575 2939 
Q 2822 3125 2822 3475 
Q 2822 3834 2567 4026 
Q 2313 4219 1838 4219 
Q 1578 4219 1281 4162 
Q 984 4106 628 3988 
L 628 4550 
Q 988 4650 1302 4700 
Q 1616 4750 1894 4750 
Q 2613 4750 3031 4423 
Q 3450 4097 3450 3541 
Q 3450 3153 3228 2886 
Q 3006 2619 2597 2516 
z
" id="DejaVuSans-33" transform="scale(0.015625)"/>
     </defs>
     <use xlink:href="#DejaVuSans-33"/>
    </g>
   </g>
   <g id="text_4">
    <!-- 4 -->
    <g transform="translate(111.737288 266.860094)scale(0.1 -0.1)">
     <defs>
      <path d="M 2419 4116 
L 825 1625 
L 2419 1625 
L 2419 4116 
z
M 2253 4666 
L 3047 4666 
L 3047 1625 
L 3713 1625 
L 3713 1100 
L 3047 1100 
L 3047 0 
L 2419 0 
L 2419 1100 
L 313 1100 
L 313 1709 
L 2253 4666 
z
" id="DejaVuSans-34" transform="scale(0.015625)"/>
     </defs>
     <use xlink:href="#DejaVuSans-34"/>
    </g>
   </g>
   <g id="text_5">
    <!-- 5 -->
    <g transform="translate(206.152086 75.865212)scale(0.1 -0.1)">
     <defs>
      <path d="M 691 4666 
L 3169 4666 
L 3169 4134 
L 1269 4134 
L 1269 2991 
Q 1406 3038 1543 3061 
Q 1681 3084 1819 3084 
Q 2600 3084 3056 2656 
Q 3513 2228 3513 1497 
Q 3513 744 3044 326 
Q 2575 -91 1722 -91 
Q 1428 -91 1123 -41 
Q 819 9 494 109 
L 494 744 
Q 775 591 1075 516 
Q 1375 441 1709 441 
Q 2250 441 2565 725 
Q 2881 1009 2881 1497 
Q 2881 1984 2565 2268 
Q 2250 2553 1709 2553 
Q 1456 2553 1204 2497 
Q 953 2441 691 2322 
L 691 4666 
z
" id="DejaVuSans-35" transform="scale(0.015625)"/>
     </defs>
     <use xlink:href="#DejaVuSans-35"/>
    </g>
   </g>
   <g id="text_6">
    <!-- 6 -->
    <g transform="translate(111.737288 96.858656)scale(0.1 -0.1)">
     <defs>
      <path d="M 2113 2584 
Q 1688 2584 1439 2293 
Q 1191 2003 1191 1497 
Q 1191 994 1439 701 
Q 1688 409 2113 409 
Q 2538 409 2786 701 
Q 3034 994 3034 1497 
Q 3034 2003 2786 2293 
Q 2538 2584 2113 2584 
z
M 3366 4563 
L 3366 3988 
Q 3128 4100 2886 4159 
Q 2644 4219 2406 4219 
Q 1781 4219 1451 3797 
Q 1122 3375 1075 2522 
Q 1259 2794 1537 2939 
Q 1816 3084 2150 3084 
Q 2853 3084 3261 2657 
Q 3669 2231 3669 1497 
Q 3669 778 3244 343 
Q 2819 -91 2113 -91 
Q 1303 -91 875 529 
Q 447 1150 447 2328 
Q 447 3434 972 4092 
Q 1497 4750 2381 4750 
Q 2619 4750 2861 4703 
Q 3103 4656 3366 4563 
z
" id="DejaVuSans-36" transform="scale(0.015625)"/>
     </defs>
     <use xlink:href="#DejaVuSans-36"/>
    </g>
   </g>
   <g id="text_7">
    <!-- 7 -->
    <g transform="translate(80.770624 134.687535)scale(0.1 -0.1)">
     <defs>
      <path d="M 525 4666 
L 3525 4666 
L 3525 4397 
L 1831 0 
L 1172 0 
L 2766 4134 
L 525 4134 
L 525 4666 
z
" id="DejaVuSans-37" transform="scale(0.015625)"/>
     </defs>
     <use xlink:href="#DejaVuSans-37"/>
    </g>
   </g>
   <g id="text_8">
    <!-- 8 -->
    <g transform="translate(132.897325 83.90604)scale(0.1 -0.1)">
     <defs>
      <path d="M 2034 2216 
Q 1584 2216 1326 1975 
Q 1069 1734 1069 1313 
Q 1069 891 1326 650 
Q 1584 409 2034 409 
Q 2484 409 2743 651 
Q 3003 894 3003 1313 
Q 3003 1734 2745 1975 
Q 2488 2216 2034 2216 
z
M 1403 2484 
Q 997 2584 770 2862 
Q 544 3141 544 3541 
Q 544 4100 942 4425 
Q 1341 4750 2034 4750 
Q 2731 4750 3128 4425 
Q 3525 4100 3525 3541 
Q 3525 3141 3298 2862 
Q 3072 2584 2669 2484 
Q 3125 2378 3379 2068 
Q 3634 1759 3634 1313 
Q 3634 634 3220 271 
Q 2806 -91 2034 -91 
Q 1263 -91 848 271 
Q 434 634 434 1313 
Q 434 1759 690 2068 
Q 947 2378 1403 2484 
z
M 1172 3481 
Q 1172 3119 1398 2916 
Q 1625 2713 2034 2713 
Q 2441 2713 2670 2916 
Q 2900 3119 2900 3481 
Q 2900 3844 2670 4047 
Q 2441 4250 2034 4250 
Q 1625 4250 1398 4047 
Q 1172 3844 1172 3481 
z
" id="DejaVuSans-38" transform="scale(0.015625)"/>
     </defs>
     <use xlink:href="#DejaVuSans-38"/>
    </g>
   </g>
   <g id="text_9">
    <!-- 9 -->
    <g transform="translate(281.866876 134.687535)scale(0.1 -0.1)">
     <defs>
      <path d="M 703 97 
L 703 672 
Q 941 559 1184 500 
Q 1428 441 1663 441 
Q 2288 441 2617 861 
Q 2947 1281 2994 2138 
Q 2813 1869 2534 1725 
Q 2256 1581 1919 1581 
Q 1219 1581 811 2004 
Q 403 2428 403 3163 
Q 403 3881 828 4315 
Q 1253 4750 1959 4750 
Q 2769 4750 3195 4129 
Q 3622 3509 3622 2328 
Q 3622 1225 3098 567 
Q 2575 -91 1691 -91 
Q 1453 -91 1209 -44 
Q 966 3 703 97 
z
M 1959 2075 
Q 2384 2075 2632 2365 
Q 2881 2656 2881 3163 
Q 2881 3666 2632 3958 
Q 2384 4250 1959 4250 
Q 1534 4250 1286 3958 
Q 1038 3666 1038 3163 
Q 1038 2656 1286 2365 
Q 1534 2075 1959 2075 
z
" id="DejaVuSans-39" transform="scale(0.015625)"/>
     </defs>
     <use xlink:href="#DejaVuSans-39"/>
    </g>
   </g>
   <g id="text_10">
    <!-- 10 -->
    <g transform="translate(265.389893 249.645186)scale(0.1 -0.1)">
     <defs>
      <path d="M 2034 4250 
Q 1547 4250 1301 3770 
Q 1056 3291 1056 2328 
Q 1056 1369 1301 889 
Q 1547 409 2034 409 
Q 2525 409 2770 889 
Q 3016 1369 3016 2328 
Q 3016 3291 2770 3770 
Q 2525 4250 2034 4250 
z
M 2034 4750 
Q 2819 4750 3233 4129 
Q 3647 3509 3647 2328 
Q 3647 1150 3233 529 
Q 2819 -91 2034 -91 
Q 1250 -91 836 529 
Q 422 1150 422 2328 
Q 422 3509 836 4129 
Q 1250 4750 2034 4750 
z
" id="DejaVuSans-30" transform="scale(0.015625)"/>
     </defs>
     <use xlink:href="#DejaVuSans-31"/>
     <use x="63.623047" xlink:href="#DejaVuSans-30"/>
    </g>
   </g>
   <g id="text_11">
    <!-- 11 -->
    <g transform="translate(178.1375 73.139375)scale(0.1 -0.1)">
     <use xlink:href="#DejaVuSans-31"/>
     <use x="63.623047" xlink:href="#DejaVuSans-31"/>
    </g>
   </g>
   <g id="text_12">
    <!-- 12 -->
    <g transform="translate(286.939455 157.666899)scale(0.1 -0.1)">
     <use xlink:href="#DejaVuSans-31"/>
     <use x="63.623047" xlink:href="#DejaVuSans-32"/>
    </g>
   </g>
   <g id="text_13">
    <!-- 13 -->
    <g transform="translate(66.5375 181.859375)scale(0.1 -0.1)">
     <use xlink:href="#DejaVuSans-31"/>
     <use x="63.623047" xlink:href="#DejaVuSans-33"/>
    </g>
   </g>
   <g id="text_14">
    <!-- 14 -->
    <g transform="translate(265.389893 114.073564)scale(0.1 -0.1)">
     <use xlink:href="#DejaVuSans-31"/>
     <use x="63.623047" xlink:href="#DejaVuSans-34"/>
    </g>
   </g>
   <g id="text_15">
    <!-- 15 -->
    <g transform="translate(90.885107 249.645186)scale(0.1 -0.1)">
     <use xlink:href="#DejaVuSans-31"/>
     <use x="63.623047" xlink:href="#DejaVuSans-35"/>
    </g>
   </g>
   <g id="text_16">
    <!-- 16 -->
    <g transform="translate(289.7375 181.859375)scale(0.1 -0.1)">
     <use xlink:href="#DejaVuSans-31"/>
     <use x="63.623047" xlink:href="#DejaVuSans-36"/>
    </g>
   </g>
   <g id="text_17">
    <!-- 17 -->
    <g transform="translate(69.335545 206.051851)scale(0.1 -0.1)">
     <use xlink:href="#DejaVuSans-31"/>
     <use x="63.623047" xlink:href="#DejaVuSans-37"/>
    </g>
   </g>
   <g id="text_18">
    <!-- 18 -->
    <g transform="translate(178.1375 290.579375)scale(0.1 -0.1)">
     <use xlink:href="#DejaVuSans-31"/>
     <use x="63.623047" xlink:href="#DejaVuSans-38"/>
    </g>
   </g>
   <g id="text_19">
    <!-- 19 -->
    <g transform="translate(90.885107 114.073564)scale(0.1 -0.1)">
     <use xlink:href="#DejaVuSans-31"/>
     <use x="63.623047" xlink:href="#DejaVuSans-39"/>
    </g>
   </g>
   <g id="text_20">
    <!-- 20 -->
    <g transform="translate(77.589374 229.031215)scale(0.1 -0.1)">
     <use xlink:href="#DejaVuSans-32"/>
     <use x="63.623047" xlink:href="#DejaVuSans-30"/>
    </g>
   </g>
   <g id="text_21">
    <!-- 21 -->
    <g transform="translate(226.558925 279.81271)scale(0.1 -0.1)">
     <use xlink:href="#DejaVuSans-32"/>
     <use x="63.623047" xlink:href="#DejaVuSans-31"/>
    </g>
   </g>
   <g id="text_22">
    <!-- 22 -->
    <g transform="translate(278.685626 229.031215)scale(0.1 -0.1)">
     <use xlink:href="#DejaVuSans-32"/>
     <use x="63.623047" xlink:href="#DejaVuSans-32"/>
    </g>
   </g>
   <g id="text_23">
    <!-- 23 -->
    <g transform="translate(247.718962 266.860094)scale(0.1 -0.1)">
     <use xlink:href="#DejaVuSans-32"/>
     <use x="63.623047" xlink:href="#DejaVuSans-33"/>
    </g>
   </g>
   <g id="text_24">
    <!-- 24 -->
    <g transform="translate(153.304164 287.853538)scale(0.1 -0.1)">
     <use xlink:href="#DejaVuSans-32"/>
     <use x="63.623047" xlink:href="#DejaVuSans-34"/>
    </g>
   </g>
   <g id="text_25">
    <!-- 25 -->
    <g transform="translate(247.718962 96.858656)scale(0.1 -0.1)">
     <use xlink:href="#DejaVuSans-32"/>
     <use x="63.623047" xlink:href="#DejaVuSans-35"/>
    </g>
   </g>
   <g id="text_26">
    <!-- 26 -->
    <g transform="translate(226.558925 83.90604)scale(0.1 -0.1)">
     <use xlink:href="#DejaVuSans-32"/>
     <use x="63.623047" xlink:href="#DejaVuSans-36"/>
    </g>
   </g>
   <g id="text_27">
    <!-- 27 -->
    <g transform="translate(69.335545 157.666899)scale(0.1 -0.1)">
     <use xlink:href="#DejaVuSans-32"/>
     <use x="63.623047" xlink:href="#DejaVuSans-37"/>
    </g>
   </g>
   <g id="text_28">
    <!-- 28 -->
    <g transform="translate(202.970836 287.853538)scale(0.1 -0.1)">
     <use xlink:href="#DejaVuSans-32"/>
     <use x="63.623047" xlink:href="#DejaVuSans-38"/>
    </g>
   </g>
   <g id="text_29">
    <!-- $\log_{11}({\mathbb{Z}^{*}_{29}})$ -->
    <g transform="translate(45 37.2)scale(0.2 -0.2)">
     <defs>
      <path d="M 603 4863 
L 1178 4863 
L 1178 0 
L 603 0 
L 603 4863 
z
" id="DejaVuSans-6c" transform="scale(0.015625)"/>
      <path d="M 1959 3097 
Q 1497 3097 1228 2736 
Q 959 2375 959 1747 
Q 959 1119 1226 758 
Q 1494 397 1959 397 
Q 2419 397 2687 759 
Q 2956 1122 2956 1747 
Q 2956 2369 2687 2733 
Q 2419 3097 1959 3097 
z
M 1959 3584 
Q 2709 3584 3137 3096 
Q 3566 2609 3566 1747 
Q 3566 888 3137 398 
Q 2709 -91 1959 -91 
Q 1206 -91 779 398 
Q 353 888 353 1747 
Q 353 2609 779 3096 
Q 1206 3584 1959 3584 
z
" id="DejaVuSans-6f" transform="scale(0.015625)"/>
      <path d="M 2906 1791 
Q 2906 2416 2648 2759 
Q 2391 3103 1925 3103 
Q 1463 3103 1205 2759 
Q 947 2416 947 1791 
Q 947 1169 1205 825 
Q 1463 481 1925 481 
Q 2391 481 2648 825 
Q 2906 1169 2906 1791 
z
M 3481 434 
Q 3481 -459 3084 -895 
Q 2688 -1331 1869 -1331 
Q 1566 -1331 1297 -1286 
Q 1028 -1241 775 -1147 
L 775 -588 
Q 1028 -725 1275 -790 
Q 1522 -856 1778 -856 
Q 2344 -856 2625 -561 
Q 2906 -266 2906 331 
L 2906 616 
Q 2728 306 2450 153 
Q 2172 0 1784 0 
Q 1141 0 747 490 
Q 353 981 353 1791 
Q 353 2603 747 3093 
Q 1141 3584 1784 3584 
Q 2172 3584 2450 3431 
Q 2728 3278 2906 2969 
L 2906 3500 
L 3481 3500 
L 3481 434 
z
" id="DejaVuSans-67" transform="scale(0.015625)"/>
      <path d="M 1984 4856 
Q 1566 4138 1362 3434 
Q 1159 2731 1159 2009 
Q 1159 1288 1364 580 
Q 1569 -128 1984 -844 
L 1484 -844 
Q 1016 -109 783 600 
Q 550 1309 550 2009 
Q 550 2706 781 3412 
Q 1013 4119 1484 4856 
L 1984 4856 
z
" id="DejaVuSans-28" transform="scale(0.015625)"/>
      <path d="M 4800 3942 
L 1382 256 
L 1382 237 
L 4128 237 
L 4070 0 
L 45 0 
L 45 237 
L 3494 3930 
L 3494 3942 
L 909 3942 
L 966 4179 
L 4800 4179 
L 4800 3942 
z
M 4467 3942 
L 3827 3942 
L 390 237 
L 1050 237 
L 4467 3942 
z
" id="STIXGeneral-Italic-2124" transform="scale(0.015625)"/>
      <path d="M 3009 3897 
L 1888 3291 
L 3009 2681 
L 2828 2375 
L 1778 3009 
L 1778 1831 
L 1422 1831 
L 1422 3009 
L 372 2375 
L 191 2681 
L 1313 3291 
L 191 3897 
L 372 4206 
L 1422 3572 
L 1422 4750 
L 1778 4750 
L 1778 3572 
L 2828 4206 
L 3009 3897 
z
" id="DejaVuSans-2a" transform="scale(0.015625)"/>
      <path d="M 513 4856 
L 1013 4856 
Q 1481 4119 1714 3412 
Q 1947 2706 1947 2009 
Q 1947 1309 1714 600 
Q 1481 -109 1013 -844 
L 513 -844 
Q 928 -128 1133 580 
Q 1338 1288 1338 2009 
Q 1338 2731 1133 3434 
Q 928 4138 513 4856 
z
" id="DejaVuSans-29" transform="scale(0.015625)"/>
     </defs>
     <use transform="translate(0 0.765625)" xlink:href="#DejaVuSans-6c"/>
     <use transform="translate(27.783203 0.765625)" xlink:href="#DejaVuSans-6f"/>
     <use transform="translate(88.964844 0.765625)" xlink:href="#DejaVuSans-67"/>
     <use transform="translate(153.398438 -15.640625)scale(0.7)" xlink:href="#DejaVuSans-31"/>
     <use transform="translate(197.93457 -15.640625)scale(0.7)" xlink:href="#DejaVuSans-31"/>
     <use transform="translate(245.205078 0.765625)" xlink:href="#DejaVuSans-28"/>
     <use transform="translate(284.21875 0.765625)" xlink:href="#STIXGeneral-Italic-2124"/>
     <use transform="translate(365.570202 39.046875)scale(0.7)" xlink:href="#DejaVuSans-2a"/>
     <use transform="translate(359.618744 -26.578125)scale(0.7)" xlink:href="#DejaVuSans-32"/>
     <use transform="translate(402.929877 -26.578125)scale(0.7)" xlink:href="#DejaVuSans-39"/>
     <use transform="translate(450.200385 0.765625)" xlink:href="#DejaVuSans-29"/>
    </g>
   </g>
   <g id="PathCollection_1">
    <defs>
     <path d="M 0 3 
C 0.795609 3 1.55874 2.683901 2.12132 2.12132 
C 2.683901 1.55874 3 0.795609 3 -0 
C 3 -0.795609 2.683901 -1.55874 2.12132 -2.12132 
C 1.55874 -2.683901 0.795609 -3 0 -3 
C -0.795609 -3 -1.55874 -2.683901 -2.12132 -2.12132 
C -2.683901 -1.55874 -3 -0.795609 -3 0 
C -3 0.795609 -2.683901 1.55874 -2.12132 2.12132 
C -1.55874 2.683901 -0.795609 3 0 3 
z
" id="C0_0_03c061f7ce"/>
    </defs>
    <g clip-path="url(#p8435524048)">
     <use style="fill:#ff0000;stroke:#ff0000;stroke-width:3;" x="163.805553" xlink:href="#C0_0_03c061f7ce" y="90.771531"/>
    </g>
    <g clip-path="url(#p8435524048)">
     <use style="fill:#ff0000;stroke:#ff0000;stroke-width:3;" x="275.168296" xlink:href="#C0_0_03c061f7ce" y="199.260397"/>
    </g>
    <g clip-path="url(#p8435524048)">
     <use style="fill:#008000;stroke:#008000;stroke-width:3;" x="144.148812" xlink:href="#C0_0_03c061f7ce" y="260.727779"/>
    </g>
    <g clip-path="url(#p8435524048)">
     <use style="fill:#008000;stroke:#008000;stroke-width:3;" x="126.515448" xlink:href="#C0_0_03c061f7ce" y="249.933932"/>
    </g>
    <g clip-path="url(#p8435524048)">
     <use style="fill:#ff0000;stroke:#ff0000;stroke-width:3;" x="205.194447" xlink:href="#C0_0_03c061f7ce" y="90.771531"/>
    </g>
    <g clip-path="url(#p8435524048)">
     <use style="fill:#ff0000;stroke:#ff0000;stroke-width:3;" x="126.515448" xlink:href="#C0_0_03c061f7ce" y="108.266068"/>
    </g>
    <g clip-path="url(#p8435524048)">
     <use style="fill:#008000;stroke:#008000;stroke-width:3;" x="100.709895" xlink:href="#C0_0_03c061f7ce" y="139.790133"/>
    </g>
    <g clip-path="url(#p8435524048)">
     <use style="fill:#ff0000;stroke:#ff0000;stroke-width:3;" x="144.148812" xlink:href="#C0_0_03c061f7ce" y="97.472221"/>
    </g>
    <g clip-path="url(#p8435524048)">
     <use style="fill:#ff0000;stroke:#ff0000;stroke-width:3;" x="268.290105" xlink:href="#C0_0_03c061f7ce" y="139.790133"/>
    </g>
    <g clip-path="url(#p8435524048)">
     <use style="fill:#008000;stroke:#008000;stroke-width:3;" x="257.210328" xlink:href="#C0_0_03c061f7ce" y="235.588176"/>
    </g>
    <g clip-path="url(#p8435524048)">
     <use style="fill:#ff0000;stroke:#ff0000;stroke-width:3;" x="184.5" xlink:href="#C0_0_03c061f7ce" y="88.5"/>
    </g>
    <g clip-path="url(#p8435524048)">
     <use style="fill:#ff0000;stroke:#ff0000;stroke-width:3;" x="275.168296" xlink:href="#C0_0_03c061f7ce" y="158.939603"/>
    </g>
    <g clip-path="url(#p8435524048)">
     <use style="fill:#008000;stroke:#008000;stroke-width:3;" x="91.5" xlink:href="#C0_0_03c061f7ce" y="179.1"/>
    </g>
    <g clip-path="url(#p8435524048)">
     <use style="fill:#ff0000;stroke:#ff0000;stroke-width:3;" x="257.210328" xlink:href="#C0_0_03c061f7ce" y="122.611824"/>
    </g>
    <g clip-path="url(#p8435524048)">
     <use style="fill:#008000;stroke:#008000;stroke-width:3;" x="111.789672" xlink:href="#C0_0_03c061f7ce" y="235.588176"/>
    </g>
    <g clip-path="url(#p8435524048)">
     <use style="fill:#ff0000;stroke:#ff0000;stroke-width:3;" x="277.5" xlink:href="#C0_0_03c061f7ce" y="179.1"/>
    </g>
    <g clip-path="url(#p8435524048)">
     <use style="fill:#008000;stroke:#008000;stroke-width:3;" x="93.831704" xlink:href="#C0_0_03c061f7ce" y="199.260397"/>
    </g>
    <g clip-path="url(#p8435524048)">
     <use style="fill:#008000;stroke:#008000;stroke-width:3;" x="184.5" xlink:href="#C0_0_03c061f7ce" y="269.7"/>
    </g>
    <g clip-path="url(#p8435524048)">
     <use style="fill:#ff0000;stroke:#ff0000;stroke-width:3;" x="111.789672" xlink:href="#C0_0_03c061f7ce" y="122.611824"/>
    </g>
    <g clip-path="url(#p8435524048)">
     <use style="fill:#008000;stroke:#008000;stroke-width:3;" x="100.709895" xlink:href="#C0_0_03c061f7ce" y="218.409867"/>
    </g>
    <g clip-path="url(#p8435524048)">
     <use style="fill:#008000;stroke:#008000;stroke-width:3;" x="224.851188" xlink:href="#C0_0_03c061f7ce" y="260.727779"/>
    </g>
    <g clip-path="url(#p8435524048)">
     <use style="fill:#ff0000;stroke:#ff0000;stroke-width:3;" x="268.290105" xlink:href="#C0_0_03c061f7ce" y="218.409867"/>
    </g>
    <g clip-path="url(#p8435524048)">
     <use style="fill:#008000;stroke:#008000;stroke-width:3;" x="242.484552" xlink:href="#C0_0_03c061f7ce" y="249.933932"/>
    </g>
    <g clip-path="url(#p8435524048)">
     <use style="fill:#008000;stroke:#008000;stroke-width:3;" x="163.805553" xlink:href="#C0_0_03c061f7ce" y="267.428469"/>
    </g>
    <g clip-path="url(#p8435524048)">
     <use style="fill:#ff0000;stroke:#ff0000;stroke-width:3;" x="242.484552" xlink:href="#C0_0_03c061f7ce" y="108.266068"/>
    </g>
    <g clip-path="url(#p8435524048)">
     <use style="fill:#ff0000;stroke:#ff0000;stroke-width:3;" x="224.851188" xlink:href="#C0_0_03c061f7ce" y="97.472221"/>
    </g>
    <g clip-path="url(#p8435524048)">
     <use style="fill:#008000;stroke:#008000;stroke-width:3;" x="93.831704" xlink:href="#C0_0_03c061f7ce" y="158.939603"/>
    </g>
    <g clip-path="url(#p8435524048)">
     <use style="fill:#008000;stroke:#008000;stroke-width:3;" x="205.194447" xlink:href="#C0_0_03c061f7ce" y="267.428469"/>
    </g>
   </g>
  </g>
 </g>
 <defs>
  <clipPath id="p8435524048">
   <rect height="271.8" width="279" x="45" y="43.2"/>
  </clipPath>
 </defs>
</svg>
